<svg xmlns="http://www.w3.org/2000/svg" viewBox="0 0 128 128">
  <defs>
    <linearGradient id="bg" x1="16" y1="12" x2="112" y2="116" gradientUnits="userSpaceOnUse">
      <stop offset="0" stop-color="#60f0c9"/>
      <stop offset="0.52" stop-color="#6ecbff"/>
      <stop offset="1" stop-color="#ffb35d"/>
    </linearGradient>
    <linearGradient id="gloss" x1="64" y1="10" x2="64" y2="118" gradientUnits="userSpaceOnUse">
      <stop offset="0" stop-color="#ffffff" stop-opacity="0.22"/>
      <stop offset="0.38" stop-color="#ffffff" stop-opacity="0"/>
      <stop offset="1" stop-color="#0a1525" stop-opacity="0.28"/>
    </linearGradient>
    <filter id="shadow" x="-20%" y="-20%" width="140%" height="140%">
      <feDropShadow dx="0" dy="8" stdDeviation="10" flood-color="#000000" flood-opacity="0.35"/>
    </filter>
  </defs>
  <rect x="10" y="10" width="108" height="108" rx="32" fill="#08111d"/>
  <rect x="11.5" y="11.5" width="105" height="105" rx="30.5" fill="url(#bg)" filter="url(#shadow)"/>
  <rect x="13" y="13" width="102" height="102" rx="29" fill="url(#gloss)"/>
  <path
    d="M79.94 38.43c-2.73-4.26-8.14-6.66-15.25-6.66-9.72 0-18.04 4.91-18.04 14.28 0 8.55 7.18 11.6 15.33 13.33l6.17 1.3c5.65 1.21 8.39 2.51 8.39 5.96 0 3.88-3.8 6.01-10.03 6.01-6.31 0-10.89-2.4-13.08-6.77l-10.21 5.88c3.72 7.14 11.89 11.31 22.98 11.31 12.15 0 21.68-5.73 21.68-16.84 0-8.97-6.57-12.43-15.8-14.37l-6.16-1.29c-5.34-1.13-7.84-2.35-7.84-5.52 0-3.48 3.24-5.36 8.45-5.36 5.57 0 8.88 2.05 10.96 5.36l10.45-6.62Z"
    fill="#f7fbff"
  />
</svg>
